# xmcd CD database file
#
# Track frame offsets:
#	150
#	11607
#	24189
#	37661
#	52744
#	65388
#	79454
#	92239
#	107821
#	123184
#	136980
#	151046
#	161706
#	177756
#	192030
#	204498
#	216840
#	230983
#	244512
#	258217
#	271865
#	286541
#	299948
#	312789
#	325805
#	338781
#
# Disc length: 4656 seconds
#
# Revision: 0
# Processed by: cddbd v1.5.2PL0 Copyright (c) Steve Scherf et al.
# Submitted via: CDex 1.51
#
DISCID=62122e1a
DTITLE=Various Artist - So Rare 3 CD 1
DYEAR=1900
DGENRE=Jazz
TTITLE0=Dinner at eight
TTITLE1=stairway to the stars
TTITLE2=when you wish upon a star
TTITLE3=when the lights go on again
TTITLE4=you'd be so nice to come home to
TTITLE5=so little time
TTITLE6=a fine romance
TTITLE7=I am wax within your hands
TTITLE8=stardust
TTITLE9=isn't this a lovely day
TTITLE10=remember me
TTITLE11=shall we dance
TTITLE12=thanks for everything
TTITLE13=with all my love and kisses
TTITLE14=no orchid for my lady
TTITLE15=I'll see you again
TTITLE16=looking around corners for you
TTITLE17=little white lies
TTITLE18=cheek to cheek
TTITLE19=Hindou
TTITLE20=the way you look tonight
TTITLE21=what a difference a day makes
TTITLE22=the show is over
TTITLE23=we'll meet again
TTITLE24=as time goes by
TTITLE25=auf wiedersehn, my dear
EXTD=
EXTT0=
EXTT1=
EXTT2=
EXTT3=
EXTT4=
EXTT5=
EXTT6=
EXTT7=
EXTT8=
EXTT9=
EXTT10=
EXTT11=
EXTT12=
EXTT13=
EXTT14=
EXTT15=
EXTT16=
EXTT17=
EXTT18=
EXTT19=
EXTT20=
EXTT21=
EXTT22=
EXTT23=
EXTT24=
EXTT25=
PLAYORDER=
